<?xml version="1.0" standalone="no"?>
<!DOCTYPE svg PUBLIC "-//W3C//DTD SVG 20010904//EN"
 "http://www.w3.org/TR/2001/REC-SVG-20010904/DTD/svg10.dtd">
<svg version="1.0" xmlns="http://www.w3.org/2000/svg"
 width="700.000000pt" height="700.000000pt" viewBox="0 0 700.000000 700.000000"
 preserveAspectRatio="xMidYMid meet">
<metadata>
Created by potrace 1.14, written by Peter Selinger 2001-2017
</metadata>
<g transform="translate(0.000000,700.000000) scale(0.100000,-0.100000)"
fill="#000000" stroke="none">
<path d="M0 3500 l0 -3500 3500 0 3500 0 0 3500 0 3500 -3500 0 -3500 0 0
-3500z m3867 3179 c118 -94 185 -129 247 -129 72 0 85 24 59 115 -6 19 -5 19
23 0 54 -35 203 -166 237 -208 19 -23 67 -91 108 -152 128 -190 229 -281 381
-342 51 -21 95 -28 225 -39 105 -8 172 -18 192 -29 35 -17 35 -20 20 -63 -8
-25 -7 -39 9 -74 16 -37 19 -64 17 -177 -2 -133 -2 -135 -29 -158 -34 -29 -48
-29 -132 3 -38 14 -134 39 -214 54 -164 32 -283 72 -369 124 -76 47 -149 62
-222 47 -59 -13 -149 -63 -149 -84 0 -7 20 -19 44 -26 24 -7 90 -39 147 -71
64 -37 119 -61 148 -65 139 -19 554 -144 684 -205 108 -52 177 -35 177 42 0
21 4 38 9 38 14 0 92 -79 175 -179 66 -78 88 -98 141 -123 75 -35 129 -45 149
-29 8 7 18 37 22 67 3 30 10 54 14 54 12 0 54 -70 73 -121 40 -105 118 -197
246 -287 l74 -52 -39 0 c-46 0 -64 -14 -64 -50 0 -37 24 -67 87 -106 89 -58
124 -67 283 -73 l145 -6 -39 -23 c-110 -65 -154 -77 -281 -77 -142 0 -200 15
-292 75 -83 55 -134 106 -221 222 -63 84 -191 208 -214 208 -4 0 -8 -8 -8 -17
0 -31 -39 -83 -74 -99 -24 -12 -46 -15 -77 -10 -70 11 -76 17 -54 65 47 105
12 156 -231 334 -244 179 -397 266 -544 306 -128 36 -168 23 -53 -17 114 -40
249 -110 277 -143 37 -44 36 -108 -4 -185 -17 -33 -43 -70 -59 -84 -77 -68
-54 -120 93 -205 41 -24 46 -30 30 -36 -25 -10 -91 0 -129 19 -38 19 -107 75
-213 174 -45 43 -99 86 -120 97 -52 26 -140 49 -304 77 -75 12 -150 30 -166
38 -59 30 -133 98 -209 191 -42 52 -83 95 -89 95 -22 0 -104 -104 -120 -153
-34 -103 14 -204 171 -362 106 -107 174 -156 345 -251 113 -62 594 -294 610
-294 20 0 9 -18 -14 -24 -29 -7 -41 -37 -26 -65 10 -20 154 -126 253 -187 l47
-29 -32 -5 c-28 -4 -33 -9 -36 -37 -4 -42 19 -85 83 -153 59 -62 317 -359 328
-377 4 -6 -23 2 -61 17 -108 45 -112 45 -112 17 0 -42 38 -150 101 -287 108
-235 144 -372 183 -695 18 -142 37 -377 32 -382 -2 -2 -11 36 -20 84 -36 187
-89 413 -123 523 -38 128 -111 293 -124 284 -5 -3 -6 -47 -3 -97 12 -171 -17
-479 -61 -647 -44 -168 -122 -335 -216 -459 -71 -94 -238 -265 -386 -394 -62
-54 -137 -126 -168 -159 -65 -72 -138 -213 -161 -313 -21 -89 -21 -257 0 -355
20 -95 86 -229 172 -344 36 -48 61 -87 55 -85 -28 10 -181 142 -251 216 -137
144 -235 313 -276 475 -22 86 -14 215 21 333 52 176 112 265 337 502 164 171
232 258 307 388 136 237 188 475 178 808 -10 350 -63 530 -229 777 -71 106
-188 254 -195 247 -3 -3 18 -61 45 -129 123 -304 182 -578 167 -778 -32 -415
-209 -765 -494 -981 -137 -105 -258 -144 -416 -137 -264 13 -551 189 -753 463
-70 96 -68 99 24 31 241 -178 508 -260 694 -212 123 32 229 115 282 224 89
180 21 516 -160 794 -64 98 -176 216 -272 287 -257 191 -696 318 -1032 297
-376 -23 -673 -139 -849 -334 l-51 -57 6 40 c13 78 39 142 139 348 80 166 99
212 90 225 -9 15 -32 17 -189 15 -153 -1 -212 -6 -401 -37 -278 -45 -393 -70
-502 -108 -199 -70 -301 -145 -337 -247 -10 -27 -13 -31 -14 -13 0 12 7 38 15
58 49 117 206 225 684 465 274 138 321 167 321 200 0 53 -136 137 -267 164
-168 34 -442 29 -761 -16 -81 -11 -158 -22 -172 -25 -46 -10 48 66 166 133
337 190 499 250 834 308 121 21 201 28 365 32 286 7 432 -10 610 -71 206 -70
469 -190 670 -304 345 -196 711 -501 898 -749 63 -83 216 -342 253 -427 16
-37 43 -85 61 -105 l32 -36 1 27 c1 64 -24 191 -56 287 -87 262 -207 425 -739
1001 -242 262 -333 377 -423 534 -100 174 -137 314 -130 488 8 178 62 304 191
443 35 39 69 80 75 92 13 24 16 72 6 98 -11 28 -65 48 -127 48 -48 -1 -56 1
-46 13 21 25 74 53 123 64 42 9 53 8 91 -11 49 -25 108 -20 124 9 12 22 -16
87 -50 119 -38 35 -127 71 -222 89 -48 10 -84 21 -80 25 23 23 135 51 223 56
88 5 101 3 179 -26 98 -36 108 -37 133 -14 59 53 -22 190 -129 219 l-48 13 62
0 c81 1 145 -21 211 -73 145 -114 169 -123 229 -86 46 27 51 59 19 116 -14 26
-26 48 -26 51 0 11 89 -48 177 -118z"/>
<path d="M3947 6318 c-54 -42 -12 -117 79 -144 58 -16 178 -22 232 -9 49 10
38 33 -43 82 -121 75 -226 102 -268 71z"/>
</g>
</svg>
